<svg xmlns="http://www.w3.org/2000/svg" viewBox="0 0 218 73"><path d="M.582 67.764V5.159c0-1.341.689-2.428 2.071-3.259C4.033 1.069 5.815.653 7.998.653c2.054 0 3.819.416 5.297 1.247 1.476.831 2.215 1.918 2.215 3.259v28.284c.963-2.063 2.488-3.803 4.575-5.222 2.086-1.419 4.542-2.128 7.368-2.128 4.43 0 8.266 1.984 11.509 5.952 3.242 3.969 4.864 8.705 4.864 14.208v21.504c0 1.474-.739 2.609-2.215 3.408-1.478.801-3.243 1.2-5.297 1.2-1.926 0-3.645-.414-5.152-1.243-1.509-.83-2.263-1.947-2.263-3.352V46.328c0-1.85-.691-3.509-2.071-4.977-1.381-1.468-3.002-2.202-4.864-2.202-1.67 0-3.163.654-4.478 1.962-1.317 1.308-1.975 3.048-1.975 5.217V67.77c0 1.149-.755 2.202-2.263 3.159-1.509.957-3.259 1.436-5.249 1.436-2.119 0-3.886-.464-5.297-1.391-1.414-.926-2.12-1.995-2.12-3.21zm52.776-51.889c-1.541-1.308-2.311-2.845-2.311-4.611s.771-3.288 2.311-4.566c1.541-1.278 3.403-1.917 5.586-1.917 2.119 0 3.949.639 5.49 1.917s2.312 2.8 2.312 4.566-.771 3.303-2.312 4.611c-1.541 1.308-3.371 1.962-5.49 1.962-2.183 0-4.045-.654-5.586-1.962zm-1.83 51.882V31.181c0-1.344.689-2.432 2.07-3.264 1.38-.831 3.162-1.248 5.345-1.248 2.119 0 3.901.417 5.345 1.248 1.445.833 2.167 1.92 2.167 3.264v36.576c0 1.152-.739 2.208-2.215 3.168-1.478.96-3.243 1.44-5.297 1.44-2.119 0-3.885-.464-5.297-1.392-1.412-.927-2.118-1.999-2.118-3.216zm22.824-11.379V12.203c0-1.26.771-2.316 2.312-3.168s3.241-1.278 5.104-1.278c1.989 0 3.739.413 5.249 1.234 1.508.822 2.264 1.842 2.264 3.06v14.618h10.883c1.156 0 2.054.576 2.697 1.728.641 1.152.963 2.496.963 4.032 0 1.606-.322 2.969-.963 4.084-.643 1.117-1.541 1.676-2.697 1.676H89.28v17.629c0 1.314.289 2.224.867 2.73.578.507 1.604.761 3.082.761h4.142c2.054 0 3.626.653 4.719 1.959 1.091 1.305 1.637 2.829 1.637 4.568 0 1.81-.546 3.349-1.637 4.62-1.093 1.272-2.665 1.908-4.719 1.908h-4.142c-12.585.001-18.877-5.327-18.877-15.986zm30.626-24.333c0-1.599 1.108-2.991 3.323-4.176 2.215-1.184 4.382-1.776 6.501-1.776 2.246 0 3.626.768 4.141 2.304l8.571 24.384 6.164-20.64c.578-1.92 2.215-2.88 4.912-2.88 2.696 0 4.334.96 4.911 2.88l6.164 20.64 8.571-24.384c.514-1.536 1.861-2.304 4.045-2.304 2.119 0 4.286.609 6.501 1.824 2.215 1.217 3.323 2.657 3.323 4.32 0 .705-.13 1.313-.386 1.824l-14.831 36.96c-.708 1.728-2.634 2.592-5.779 2.592-3.467 0-5.522-.864-6.163-2.592l-6.356-16.704-6.356 16.704c-.643 1.728-2.73 2.592-6.261 2.592-3.081 0-4.976-.864-5.682-2.592l-14.831-36.96c-.322-.831-.482-1.503-.482-2.016zm69.15 20.929v-7.009c0-5.438 2.167-10.111 6.501-14.016 4.334-3.903 9.549-5.856 15.649-5.856 5.714 0 10.595 1.717 14.64 5.152s6.067 7.815 6.067 13.143c0 2.035-.258 3.688-.771 4.961-.515 1.271-1.285 2.163-2.312 2.671-1.028.51-1.975.843-2.841 1.002-.867.159-2.008.239-3.419.239h-18.588v.581c0 2.396.898 4.322 2.696 5.778 1.797 1.457 4.173 2.185 7.127 2.185 2.247 0 4.606-.608 7.079-1.824 2.471-1.215 4.124-1.824 4.96-1.824 1.604 0 2.921.753 3.948 2.256 1.026 1.505 1.541 2.928 1.541 4.272 0 1.984-1.719 3.921-5.152 5.808-3.436 1.887-7.689 2.832-12.761 2.832-7.191 0-13.05-1.872-17.577-5.616-4.524-3.744-6.787-8.654-6.787-14.735zm14.928-8.065h11.942c1.348 0 2.022-.694 2.022-2.085 0-1.62-.69-2.894-2.071-3.82s-3.033-1.391-4.959-1.391c-1.863 0-3.484.464-4.864 1.391-1.381.927-2.07 2.2-2.07 3.82v2.085z" fill="#fff"/></svg>